<svg width="20" height="20" viewBox="0 0 20 20" fill="none" xmlns="http://www.w3.org/2000/svg">
<path d="M8.71916 4.42764C9.10224 3.10339 9.29378 2.44126 9.58904 2.2739C9.84395 2.1294 10.156 2.1294 10.4109 2.2739C10.7062 2.44126 10.8977 3.10339 11.2808 4.42764L11.7809 6.15642C11.8839 6.51261 11.9355 6.6907 12.0405 6.82108C12.1332 6.93612 12.2547 7.02446 12.3928 7.07705C12.5492 7.13665 12.7345 7.13061 13.1051 7.11854L14.9038 7.05994C16.2817 7.01505 16.9706 6.99261 17.221 7.2217C17.4372 7.41948 17.5336 7.71627 17.475 8.00335C17.407 8.33588 16.8365 8.72265 15.6954 9.4962L14.2058 10.506C13.8989 10.7141 13.7454 10.8181 13.6539 10.9583C13.5731 11.082 13.5267 11.2249 13.5193 11.3725C13.511 11.5397 13.574 11.7141 13.7 12.0628L14.3115 13.7553C14.78 15.0519 15.0142 15.7001 14.8737 16.0091C14.7524 16.2758 14.5 16.4592 14.2088 16.4922C13.8716 16.5303 13.3274 16.1072 12.2391 15.261L10.8184 14.1564C10.5257 13.9288 10.3793 13.815 10.2177 13.7712C10.0751 13.7326 9.92483 13.7326 9.78224 13.7712C9.62063 13.815 9.47428 13.9288 9.18156 14.1564L7.76081 15.261C6.67252 16.1072 6.12837 16.5303 5.79113 16.4922C5.49997 16.4592 5.24751 16.2758 5.12621 16.0091C4.98572 15.7001 5.21995 15.0519 5.68841 13.7553L6.29997 12.0628C6.42597 11.7141 6.48897 11.5397 6.48063 11.3725C6.47328 11.2249 6.42684 11.082 6.34606 10.9583C6.25452 10.8181 6.10107 10.7141 5.79416 10.506L4.30453 9.4962C3.16346 8.72265 2.59293 8.33588 2.525 8.00335C2.46635 7.71627 2.56278 7.41948 2.77897 7.2217C3.02939 6.99261 3.7183 7.01505 5.09612 7.05994L6.89482 7.11854C7.26542 7.13061 7.45071 7.13665 7.60717 7.07705C7.74521 7.02446 7.8668 6.93612 7.95947 6.82108C8.0645 6.6907 8.11602 6.51261 8.21906 6.15642L8.71916 4.42764Z" fill="url(#paint0_linear_0_107)"/>
<defs>
<linearGradient id="paint0_linear_0_107" x1="17.5" y1="10" x2="1.66665" y2="10" gradientUnits="userSpaceOnUse">
<stop offset="0.458564" stop-color="#1D1D1B" stop-opacity="0.2"/>
<stop offset="0.458664" stop-color="#FFEB2D"/>
</linearGradient>
</defs>
</svg>
